/* XPM */
static char * jasperwave_xpm[] = {
"48 48 531 2",
"  	c None",
". 	c #E9E9E8",
"+ 	c #EBEBEA",
"@ 	c #ECECEB",
"# 	c #DADAD9",
"$ 	c #C7C7C7",
"% 	c #E7E7E6",
"& 	c #E9E8E8",
"* 	c #EDECEC",
"= 	c #EDEDEC",
"- 	c #D1D1CF",
"; 	c #9B9A99",
"> 	c #C2C1C0",
", 	c #EAEAE9",
"' 	c #E8E8E7",
") 	c #EEEDED",
"! 	c #D0CECE",
"~ 	c #929190",
"{ 	c #C4C4C3",
"] 	c #E8E7E7",
"^ 	c #9A9998",
"/ 	c #949392",
"( 	c #969594",
"_ 	c #C5C4C4",
": 	c #EEEEED",
"< 	c #989797",
"[ 	c #929291",
"} 	c #989796",
"| 	c #C4C4C4",
"1 	c #EDEDEB",
"2 	c #D0CFCE",
"3 	c #908F8F",
"4 	c #999897",
"5 	c #C5C5C4",
"6 	c #E5E4E4",
"7 	c #CAC9C9",
"8 	c #CBC9CA",
"9 	c #CACAC9",
"0 	c #CBCACA",
"a 	c #C9C8C8",
"b 	c #D4D4D2",
"c 	c #979695",
"d 	c #8D8C8C",
"e 	c #9C9B9A",
"f 	c #C7C6C6",
"g 	c #EBEAEA",
"h 	c #ECEBEB",
"i 	c #E0E0DF",
"j 	c #ADACAB",
"k 	c #888786",
"l 	c #91908F",
"m 	c #959493",
"n 	c #9E9D9C",
"o 	c #C7C7C6",
"p 	c #F1EBE9",
"q 	c #F1EBE8",
"r 	c #F0EAE8",
"s 	c #F3ECE9",
"t 	c #ECEAE9",
"u 	c #E6E5E5",
"v 	c #D4D3D2",
"w 	c #A3A2A1",
"x 	c #8C8B8A",
"y 	c #8F8E8D",
"z 	c #9B9B9A",
"A 	c #E5E5E4",
"B 	c #D1CBC9",
"C 	c #94BBCF",
"D 	c #48ACDE",
"E 	c #4CAEDF",
"F 	c #4CAFDF",
"G 	c #4AADDF",
"H 	c #6BB2D6",
"I 	c #C9C9C9",
"J 	c #CBC9C9",
"K 	c #DBDBDA",
"L 	c #DDDDDC",
"M 	c #B4B2B2",
"N 	c #B3B2B1",
"O 	c #B6B5B4",
"P 	c #B8B7B6",
"Q 	c #BABAB8",
"R 	c #E0DFDF",
"S 	c #EDEBEA",
"T 	c #E6E8E9",
"U 	c #34A9E3",
"V 	c #0195E1",
"W 	c #0196E0",
"X 	c #0296E0",
"Y 	c #0899E1",
"Z 	c #B2D5E7",
"` 	c #F6EEEB",
" .	c #EFEFEE",
"..	c #ECEAEB",
"+.	c #EAE9E9",
"@.	c #EEEBE9",
"#.	c #DFE6E9",
"$.	c #1B9EDF",
"%.	c #0090DD",
"&.	c #0092DD",
"*.	c #9FCEE6",
"=.	c #F8EFEB",
"-.	c #CDCAC9",
";.	c #C1C7CA",
">.	c #1799DB",
",.	c #0092DE",
"'.	c #0093DD",
").	c #89B8D0",
"!.	c #D5CCC8",
"~.	c #E4E3E3",
"{.	c #DFE6E8",
"].	c #1B9ADB",
"^.	c #008ED9",
"/.	c #008FD9",
"(.	c #008CD9",
"_.	c #9FCDE5",
":.	c #F7EFEA",
"<.	c #EFEBEA",
"[.	c #E0E6E9",
"}.	c #1B98D9",
"|.	c #008BD6",
"1.	c #008DD7",
"2.	c #0089D6",
"3.	c #9FCDE3",
"4.	c #F8F0ED",
"5.	c #EEEBF3",
"6.	c #EEEAF4",
"7.	c #EEEAF3",
"8.	c #ECEAEF",
"9.	c #E4E4E3",
"0.	c #1891D2",
"a.	c #0089D3",
"b.	c #008AD4",
"c.	c #0088D4",
"d.	c #8AB5CF",
"e.	c #D4CDC3",
"f.	c #BCCA96",
"g.	c #BACB8F",
"h.	c #BBCB90",
"i.	c #BACB8E",
"j.	c #C1C9A8",
"k.	c #CBC9CD",
"l.	c #EDEAE8",
"m.	c #DFE4E7",
"n.	c #1B93D3",
"o.	c #0085D0",
"p.	c #0088D1",
"q.	c #0084D0",
"r.	c #A1CAE7",
"s.	c #C8DC7E",
"t.	c #9ACD30",
"u.	c #9CCE31",
"v.	c #9CCE32",
"w.	c #9BCE32",
"x.	c #9FCE3C",
"y.	c #D8E2BE",
"z.	c #EBE9EE",
"A.	c #EEECEA",
"B.	c #E0E5E9",
"C.	c #1B91D1",
"D.	c #0082CD",
"E.	c #0085CE",
"F.	c #0081CE",
"G.	c #A0CAE1",
"H.	c #B3D64C",
"I.	c #91C812",
"J.	c #93C814",
"K.	c #93C815",
"L.	c #92C817",
"M.	c #C8DE98",
"N.	c #EFECF5",
"O.	c #E2E2E1",
"P.	c #CACACA",
"Q.	c #CACACB",
"R.	c #CDCBCA",
"S.	c #C1C6C9",
"T.	c #188CCB",
"U.	c #0081CC",
"V.	c #0084CC",
"W.	c #0080CD",
"X.	c #8AB3CB",
"Y.	c #A5CB39",
"Z.	c #8EC613",
"`.	c #90C71A",
" +	c #8DC611",
".+	c #B2C87F",
"++	c #CEC9D3",
"@+	c #E3E2E2",
"#+	c #E7E6E6",
"$+	c #E5E5E5",
"%+	c #E6E7EC",
"&+	c #E7E6E2",
"*+	c #E7E6E0",
"=+	c #E7E6E1",
"-+	c #EAEAEC",
";+	c #DDE3E7",
">+	c #1B8DCC",
",+	c #007EC8",
"'+	c #0081C9",
")+	c #007DC9",
"!+	c #9DC6DD",
"~+	c #A9D142",
"{+	c #8AC416",
"]+	c #8DC51D",
"^+	c #88C313",
"/+	c #C1D992",
"(+	c #EBE8F1",
"_+	c #E8E8ED",
":+	c #F0DB96",
"<+	c #F8D04C",
"[+	c #F8D050",
"}+	c #F8D04B",
"|+	c #F7DA81",
"1+	c #E1E6E8",
"2+	c #1B8CCC",
"3+	c #007CC5",
"4+	c #007FC6",
"5+	c #007AC6",
"6+	c #9FC8DF",
"7+	c #A8D046",
"8+	c #86C218",
"9+	c #89C31F",
"0+	c #84C115",
"a+	c #C2DA95",
"b+	c #EEEBF4",
"c+	c #C9CACD",
"d+	c #CDC8BB",
"e+	c #F2C12D",
"f+	c #F7BD0A",
"g+	c #F6BB09",
"h+	c #F7BC0A",
"i+	c #FAC11B",
"j+	c #CAC4A6",
"k+	c #1685CB",
"l+	c #0079C3",
"m+	c #007BC4",
"n+	c #0078C4",
"o+	c #8AB1C8",
"p+	c #9DC840",
"q+	c #84C11C",
"r+	c #86C222",
"s+	c #82C11A",
"t+	c #AEC683",
"u+	c #CECAD3",
"v+	c #E6E6E5",
"w+	c #E3E3E2",
"x+	c #E1E2E6",
"y+	c #E4DDC9",
"z+	c #F4B814",
"A+	c #F4B300",
"B+	c #F4B403",
"C+	c #F4B401",
"D+	c #F9B500",
"E+	c #E0D6AF",
"F+	c #1A88CF",
"G+	c #0076C0",
"H+	c #0079C1",
"I+	c #0075C1",
"J+	c #9CC3DA",
"K+	c #A1CD49",
"L+	c #7FBF1E",
"M+	c #82C025",
"N+	c #7DBF1B",
"O+	c #BBD593",
"P+	c #E8E5ED",
"Q+	c #E2E1E1",
"R+	c #E5E6E9",
"S+	c #E7E0CD",
"T+	c #F2B214",
"U+	c #F3AE03",
"V+	c #F3AF07",
"W+	c #F3AF06",
"X+	c #F7AF01",
"Y+	c #E3D7B2",
"Z+	c #1B87CD",
"`+	c #0073BD",
" @	c #0077BE",
".@	c #0072BE",
"+@	c #A0C6DD",
"@@	c #9FCD4D",
"#@	c #7BBD20",
"$@	c #7FBF27",
"%@	c #7ABD1E",
"&@	c #BCD797",
"*@	c #EDE9F1",
"=@	c #DFDEDE",
"-@	c #C9CACE",
";@	c #CEC5B4",
">@	c #EFAB15",
",@	c #F2A805",
"'@	c #F2A908",
")@	c #F2A907",
"!@	c #F6AA04",
"~@	c #CBBE9B",
"{@	c #167FC5",
"]@	c #0072BA",
"^@	c #0074BB",
"/@	c #0071BC",
"(@	c #8AAEC5",
"_@	c #93C247",
":@	c #76BA23",
"<@	c #79BA29",
"[@	c #75B920",
"}@	c #A8C386",
"|@	c #CECAD2",
"1@	c #E1E0E0",
"2@	c #DDDFE2",
"3@	c #E0D8C7",
"4@	c #EFA717",
"5@	c #F0A206",
"6@	c #F0A30A",
"7@	c #F0A309",
"8@	c #F4A305",
"9@	c #DBCEAC",
"0@	c #1981C6",
"a@	c #006EB7",
"b@	c #0071B8",
"c@	c #006DB8",
"d@	c #9ABED4",
"e@	c #94C44E",
"f@	c #70B424",
"g@	c #74B62A",
"h@	c #6EB421",
"i@	c #B3CE93",
"j@	c #E5E1E9",
"k@	c #E3E3E7",
"l@	c #E5DCCC",
"m@	c #EEA31A",
"n@	c #EF9D08",
"o@	c #EF9E0C",
"p@	c #EF9E0B",
"q@	c #F39E07",
"r@	c #DFD1B1",
"s@	c #1A80C4",
"t@	c #006BB4",
"u@	c #006FB5",
"v@	c #006AB4",
"w@	c #9DC1D7",
"x@	c #90C250",
"y@	c #69AF25",
"z@	c #6EB22C",
"A@	c #67AF22",
"B@	c #B3CF97",
"C@	c #EBE7EE",
"D@	c #DEDDDD",
"E@	c #DBDADA",
"F@	c #C8C9CD",
"G@	c #CDC3B5",
"H@	c #EB9C1A",
"I@	c #EE970A",
"J@	c #EE980D",
"K@	c #EE980C",
"L@	c #F29809",
"M@	c #CABA9C",
"N@	c #1679BE",
"O@	c #006AB2",
"P@	c #006CB2",
"Q@	c #0069B3",
"R@	c #8AACC2",
"S@	c #84B74A",
"T@	c #64AC27",
"U@	c #67AD2D",
"V@	c #62AC25",
"W@	c #A0BD87",
"X@	c #CFCAD1",
"Y@	c #DCDBDB",
"Z@	c #DAD9D9",
"`@	c #D9DADE",
" #	c #DDD2C5",
".#	c #EC971C",
"+#	c #ED920C",
"@#	c #ED930F",
"##	c #ED930E",
"$#	c #F1930B",
"%#	c #D8C6AB",
"&#	c #197ABE",
"*#	c #0066AF",
"=#	c #0069AF",
"-#	c #0065AF",
";#	c #97B8CF",
">#	c #82B750",
",#	c #5BA427",
"'#	c #5FA62D",
")#	c #59A425",
"!#	c #A8C593",
"~#	c #E3DEE5",
"{#	c #DDDCDC",
"]#	c #D7D6D6",
"^#	c #DDDFE1",
"/#	c #E1D6C9",
"(#	c #EB921E",
"_#	c #EB8C0D",
":#	c #EC8D11",
"<#	c #EC8D10",
"[#	c #F08D0D",
"}#	c #DCCAAF",
"|#	c #1A79BC",
"1#	c #0063AC",
"2#	c #0067AD",
"3#	c #0062AB",
"4#	c #9CBCD2",
"5#	c #7CB151",
"6#	c #519C27",
"7#	c #569E2D",
"8#	c #4F9B24",
"9#	c #A7C596",
"0#	c #E9E4EA",
"a#	c #D5D4D4",
"b#	c #C7C9CB",
"c#	c #CCC1B4",
"d#	c #E88C1E",
"e#	c #EB870F",
"f#	c #EA8812",
"g#	c #EA8811",
"h#	c #EE880E",
"i#	c #C8B59C",
"j#	c #1672B5",
"k#	c #0062A9",
"l#	c #0064AA",
"m#	c #0060AA",
"n#	c #89A8BF",
"o#	c #6DA44A",
"p#	c #489328",
"q#	c #4C952D",
"r#	c #469325",
"s#	c #95B387",
"t#	c #D0CAD0",
"u#	c #D8D7D7",
"v#	c #D1D0D0",
"w#	c #D4D3D3",
"x#	c #D2D3D6",
"y#	c #D6CABE",
"z#	c #E8861E",
"A#	c #E98011",
"B#	c #E98215",
"C#	c #E98214",
"D#	c #ED810E",
"E#	c #D4BFA8",
"F#	c #1671B5",
"G#	c #005EA6",
"H#	c #0061A7",
"I#	c #005BA5",
"J#	c #93B2C9",
"K#	c #68A14C",
"L#	c #3D8B26",
"M#	c #438E2D",
"N#	c #3A8923",
"O#	c #97B78D",
"P#	c #DDD8DD",
"Q#	c #CFCECE",
"R#	c #D2D1D1",
"S#	c #D4D4D5",
"T#	c #D7D5D4",
"U#	c #E49345",
"V#	c #E97506",
"W#	c #E8780C",
"X#	c #E8780D",
"Y#	c #E87508",
"Z#	c #E8882C",
"`#	c #E4D8CD",
" $	c #488ABB",
".$	c #00539F",
"+$	c #0058A1",
"@$	c #0056A0",
"#$	c #0D65A8",
"$$	c #C6CFDC",
"%$	c #86AF77",
"&$	c #2E801E",
"*$	c #348324",
"=$	c #348325",
"-$	c #328222",
";$	c #3E892F",
">$	c #B9C8B4",
",$	c #DEDADD",
"'$	c #D6D5D5",
")$	c #D3D2D2",
"!$	c #D2D3D5",
"~$	c #D5CAC2",
"{$	c #DCB08A",
"]$	c #DDAE84",
"^$	c #DEAE86",
"/$	c #DFB088",
"($	c #DCCABC",
"_$	c #DEDEDF",
":$	c #CDD2D6",
"<$	c #8BABC5",
"[$	c #7DA4C2",
"}$	c #7EA5C3",
"|$	c #82A5C3",
"1$	c #B3C4D0",
"2$	c #E3DFDE",
"3$	c #D4D6D3",
"4$	c #A0BA9D",
"5$	c #92B28E",
"6$	c #93B390",
"7$	c #B4C3B1",
"8$	c #D9D6D8",
"9$	c #D0CFCF",
"0$	c #CECDCD",
"a$	c #D0D1D3",
"b$	c #D0D5DA",
"c$	c #D2D7DC",
"d$	c #D3D8DE",
"e$	c #D5DADF",
"f$	c #D6D8DB",
"g$	c #DBD8D7",
"h$	c #E3DEDA",
"i$	c #E4DEDA",
"j$	c #DFDBD9",
"k$	c #D9D7D8",
"l$	c #DFDADF",
"m$	c #DFDADE",
"n$	c #DED9DD",
"o$	c #D8D5D8",
"p$	c #D9D9D9",
"q$	c #CDCBCB",
"r$	c #CCCBCB",
"s$	c #CDCCCC",
"t$	c #C6C4C4",
"u$	c #D6D6D6",
"v$	c #D9D8D8",
"w$	c #D8D8D8",
"x$	c #D3D3D3",
"y$	c #908E8E",
"z$	c #6B6969",
"A$	c #878585",
"B$	c #868484",
"C$	c #878686",
"D$	c #888686",
"E$	c #868585",
"F$	c #7D7B7B",
"                                                                                                ",
"                                                                                                ",
"                                                                                                ",
"                                                                                                ",
"                                                                                                ",
"                        . . + @ @ @ @ @ @ @ @ @ @ @ @ @ # $                                     ",
"                      % & + @ @ @ @ @ @ @ @ @ * * * * = - ; >                                   ",
"                    , ' , @ @ @ @ @ @ @ * * * * * * * ) ! ; ~ {                                 ",
"                    ] . + @ @ @ @ @ @ * * * * * * * * ) ! ^ / ( _                               ",
"                    ' , = = = = = = ) ) ) : : : : : : : ! < [ } } |                             ",
"                    ' , % % % % % % ] ] ] ' ' ' ' ' % 1 2 ( 3 ( ^ 4 5                           ",
"                    , 6 7 7 7 7 7 8 7 9 9 9 0 0 0 0 a # b c d / } e ; f                         ",
"                    . + , , , , g g g + + h h h h h h * i j k l m ^ n e o                       ",
"                    . + ' ' ' ' & & . . . p q r r r s t u v w x y / 4 e z _                     ",
"                    + A 9 9 9 9 0 0 0 0 B C D E F G H I J K L > M N O P Q > R                   ",
"                    . + , , , , g g + S T U V W W X Y Z ` @  .@ ..g , , . = =                   ",
"                    . + . . . . +.+., @.#.$.%.&.&.&.%.*.=., . , +.+.. . @ = @                   ",
"                    , A 7 7 7 7 7 7 7 -.;.>.,.'.'.'.%.).!.7 7 7 7 7 7 7 ~.: @                   ",
"                    . , . . . . . +.+.@.{.].^./././.(._.:., , +.+.. . . + @ +                   ",
"                    . + , , , , , g g <.[.}.|.1.1.1.2.3.4.5.6.7.7.8., , + @ +                   ",
"                    . 9.7 7 7 7 7 7 7 -.;.0.a.b.b.b.c.d.e.f.g.h.i.j.k.7 9.= ,                   ",
"                    ] . % ' ' ' ' ' & l.m.n.o.p.p.p.q.r.s.t.u.v.w.x.y.z.+ + .                   ",
"                    % . . , , , , , , A.B.C.D.E.E.E.F.G.H.I.J.K.J.L.M.N.+ , .                   ",
"                    % O.7 9 P.Q.Q.Q.Q.R.S.T.U.V.V.V.W.X.Y.Z.`.`.`. +.+++@++ &                   ",
"                    u #+6 $+%+&+*+*+=+-+;+>+,+'+'+'+)+!+~+{+]+]+]+^+/+(+' . %                   ",
"                    6 #+% _+:+<+[+[+}+|+1+2+3+4+4+4+5+6+7+8+9+9+9+0+a+b+& ' #+                  ",
"                    6 i c+d+e+f+g+g+h+i+j+k+l+m+m+m+n+o+p+q+r+r+r+s+t+u+i ' v+                  ",
"                    w+~.x+y+z+A+B+B+C+D+E+F+G+H+H+H+I+J+K+L+M+M+M+N+O+P+v+v+6                   ",
"                    Q+9.R+S+T+U+V+V+W+X+Y+Z+`+ @ @ @.@+@@@#@$@$@$@%@&@*@v+6 6                   ",
"                    @+=@-@;@>@,@'@'@)@!@~@{@]@^@^@^@/@(@_@:@<@<@<@[@}@|@=@u ~.                  ",
"                    1@Q+2@3@4@5@6@6@7@8@9@0@a@b@b@b@c@d@e@f@g@g@g@h@i@j@@+~.@+                  ",
"                    =@Q+k@l@m@n@o@o@p@q@r@s@t@u@u@u@v@w@x@y@z@z@z@A@B@C@@+Q+Q+                  ",
"                    D@E@F@G@H@I@J@J@K@L@M@N@O@P@P@P@Q@R@S@T@U@U@U@V@W@X@Y@Q+R                   ",
"                    Z@Y@`@ #.#+#@#@###$#%#&#*#=#=#=#-#;#>#,#'#'#'#)#!#~#=@R {#                  ",
"                    ]#E@^#/#(#_#:#:#<#[#}#|#1#2#2#2#3#4#5#6#7#7#7#8#9#0#D@Y@E@                  ",
"                    a#a#b#c#d#e#f#f#g#h#i#j#k#l#l#l#m#n#o#p#q#q#q#r#s#t#]#E@u#                  ",
"                    v#w#x#y#z#A#B#C#C#D#E#F#G#H#H#H#I#J#K#L#M#M#M#N#O#P#]#]#a#                  ",
"                    Q#R#S#T#U#V#W#X#Y#Z#`# $.$+$+$@$#$$$%$&$*$=$-$;$>$,$'$)$v#                  ",
"                    7 Q#v#!$~${$]$^$/$($_$:$<$[$}$|$1$2$3$4$5$6$5$7$8$)$R#9$9$                  ",
"                    R#0 0$Q#a$b$c$d$e$f$'$g$h$i$i$i$j$u#k$l$m$n$P#o$v#9$Q#0$p$                  ",
"                    q$0$a r$s$Q#9$9$v#R#)$)$w#w#a#a#w#w#)$)$R#v#9$9$Q#s$r${#                    ",
"                      t$w#R#w#a#u$]#v$Z@Z@Z@E@E@E@E@E@E@Z@Z@v$w$]#'$a#a#x$y$                    ",
"                        z$A$B$B$B$B$A$C$C$D$D$D$D$D$D$D$D$D$C$C$A$E$D$F$                        ",
"                                                                                                ",
"                                                                                                ",
"                                                                                                ",
"                                                                                                ",
"                                                                                                "};
